HIERARCHY
ROOT Hips
{
	OFFSET -3.958830 18.904000 13.208200
	CHANNELS 6 Xposition Yposition Zposition Zrotation Yrotation Xrotation 
	JOINT LHipJoint
	{
		OFFSET 0.000000 0.000000 0.000000
		CHANNELS 3 Zrotation Yrotation Xrotation
		JOINT LeftUpLeg
		{
			OFFSET 1.800000 -1.400000 0.085000
			CHANNELS 3 Zrotation Yrotation Xrotation
			JOINT LeftLeg
			{
				OFFSET 2.215000 -6.000000 0.000000
				CHANNELS 3 Zrotation Yrotation Xrotation
				JOINT LeftFoot
				{
					OFFSET 2.500000 -6.900000 0.000000
					CHANNELS 3 Zrotation Yrotation Xrotation
					JOINT LeftToeBase
					{
						OFFSET 0.200000 -0.500000 1.950000
						CHANNELS 3 Zrotation Yrotation Xrotation
						End Site
						{
							OFFSET 0.000000 0.000000 0.000000
						}
					}
				}
			}
		}
	}
	JOINT RHipJoint
	{
		OFFSET 0.000000 0.000000 0.000000
		CHANNELS 3 Zrotation Yrotation Xrotation
		JOINT RightUpLeg
		{
			OFFSET -1.800000 -1.400000 0.085000
			CHANNELS 3 Zrotation Yrotation Xrotation
			JOINT RightLeg
			{
				OFFSET -2.215000 -6.000000 0.000000
				CHANNELS 3 Zrotation Yrotation Xrotation
				JOINT RightFoot
				{
					OFFSET -2.500000 -6.900000 0.000000
					CHANNELS 3 Zrotation Yrotation Xrotation
					JOINT RightToeBase
					{
						OFFSET -0.200000 -0.500000 1.950000
						CHANNELS 3 Zrotation Yrotation Xrotation
						End Site
						{
							OFFSET 0.000000 0.000000 0.000000
						}
					}
				}
			}
		}
	}
	JOINT LowerBack
	{
		OFFSET 0.000000 0.000000 0.000000
		CHANNELS 3 Zrotation Yrotation Xrotation
		JOINT Spine
		{
			OFFSET -0.087000 1.940000 -0.288900
			CHANNELS 3 Zrotation Yrotation Xrotation
			JOINT Spine1
			{
				OFFSET 0.000000 1.950000 0.060000
				CHANNELS 3 Zrotation Yrotation Xrotation
				JOINT Neck
				{
					OFFSET 0.000000 0.000000 0.000000
					CHANNELS 3 Zrotation Yrotation Xrotation
					JOINT Neck1
					{
						OFFSET 0.000000 1.600000 0.340000
						CHANNELS 3 Zrotation Yrotation Xrotation
						JOINT Head
						{
							OFFSET 0.000000 1.667000 -0.240000
							CHANNELS 3 Zrotation Yrotation Xrotation
							End Site
							{
								OFFSET 0.000000 0.000000 0.000000
							}
						}
					}
				}
				JOINT LeftShoulder
				{
					OFFSET 0.000000 0.000000 0.000000
					CHANNELS 3 Zrotation Yrotation Xrotation
					JOINT LeftArm
					{
						OFFSET 2.700000 1.550000 -0.730000
						CHANNELS 3 Zrotation Yrotation Xrotation
						JOINT LeftForeArm
						{
							OFFSET 5.450000 0.000000 0.000000
							CHANNELS 3 Zrotation Yrotation Xrotation
							JOINT LeftHand
							{
								OFFSET 3.450000 0.000000 0.000000
								CHANNELS 3 Zrotation Yrotation Xrotation
								JOINT LeftHandIndex1
								{
									OFFSET 0.750000 0.000000 0.000000
									CHANNELS 3 Zrotation Yrotation Xrotation
									End Site
									{
										OFFSET 0.000000 0.000000 0.000000
									}
								}
							}
						}
					}
				}
				JOINT RightShoulder
				{
					OFFSET 0.000000 0.000000 0.000000
					CHANNELS 3 Zrotation Yrotation Xrotation
					JOINT RightArm
					{
						OFFSET -2.700000 1.550000 -0.730000
						CHANNELS 3 Zrotation Yrotation Xrotation
						JOINT RightForeArm
						{
							OFFSET -5.450000 0.000000 0.000000
							CHANNELS 3 Zrotation Yrotation Xrotation
							JOINT RightHand
							{
								OFFSET -3.450000 0.000000 0.000000
								CHANNELS 3 Zrotation Yrotation Xrotation
								JOINT RightHandIndex1
								{
									OFFSET -0.750000 0.000000 0.000000
									CHANNELS 3 Zrotation Yrotation Xrotation
									End Site
									{
										OFFSET 0.000000 0.000000 0.000000
									}
								}
							}
						}
					}
				}
			}
		}
	}
}
MOTION
Frames: 14
Frame Time: 0.016667
0.061350 16.961000 -2.615420 -7.268519 -47.449763 4.521379 -15.082516 13.850029 3.965012 16.876610 1.789438 -35.866200 0.338361 6.631750 22.070959 0.055171 4.000222 2.860113 0.460990 0.157190 0.490070 18.165523 -9.939595 3.340962 -4.796577 10.214677 -14.949607 14.333317 -11.181078 38.407294 -0.956183 -6.103121 2.389288 -0.214430 -0.330250 -0.080370 -3.480788 -3.497572 -8.490311 29.620589 8.708777 19.611082 -15.190978 12.559250 -30.956225 5.496012 -10.374156 -14.678416 -33.081626 24.022917 59.699236 8.067340 8.394270 8.242910 -5.130389 34.290043 -2.504545 -57.864497 27.412392 -3.692268 128.745594 -38.355487 -67.760730 -2.635942 2.960242 0.772360 -0.438080 0.343150 0.118680 -4.809573 -15.584178 6.982334 69.233487 -11.190902 -6.179715 -111.803372 58.176488 -76.496126 2.264443 -0.419213 0.029950 -0.090040 -0.357970 -0.184980 
0.021950 16.934620 -2.612030 -9.090116 -49.099061 4.210176 -15.207336 14.027021 3.958855 19.612700 2.931132 -34.787594 0.853981 7.172452 23.219471 0.077690 4.453413 2.649620 0.518260 0.207510 0.571830 18.095301 -9.741495 3.251493 -2.169898 9.869323 -13.287301 12.076681 -10.573809 40.114952 -1.041976 -6.121562 2.363402 -0.195480 -0.392810 -0.038350 -3.196921 -4.097437 -8.551132 29.341458 7.618232 20.787114 -12.924159 12.717191 -30.614504 5.538227 -9.757572 -14.919707 -32.375508 24.880399 61.967258 7.399420 10.050120 5.469780 -4.639075 33.416103 -2.065773 -56.947380 27.025022 -3.617888 126.884990 -37.626095 -62.091160 -2.656275 2.921287 0.822710 -0.467630 0.408160 0.096620 -4.943841 -15.164688 6.739154 67.507478 -9.256422 -4.728619 -112.510612 58.210175 -77.235010 2.279996 -0.431662 0.056730 -0.110030 -0.372950 -0.215280 
-0.025310 16.889560 -2.614270 -10.783678 -50.923220 4.336660 -15.352682 14.102680 4.031980 22.284783 4.001381 -34.173499 1.230017 7.874031 24.623615 0.091884 5.011266 2.434454 0.511450 0.189580 0.595770 18.021248 -9.483110 3.191863 -0.219900 9.706245 -12.098337 10.658009 -10.344188 41.943286 -1.110491 -6.293130 2.316717 -0.192800 -0.385870 -0.027530 -2.914733 -4.643151 -8.699580 28.325668 6.811477 21.547722 -10.065187 12.964393 -30.318136 5.442712 -9.137375 -14.986098 -30.835041 25.168144 63.496668 6.353680 11.774190 5.051530 -4.278547 32.363691 -1.580790 -54.987815 26.410911 -3.274148 124.307185 -37.090013 -55.658926 -2.744454 2.822370 0.852090 -0.448030 0.414540 0.081370 -4.682534 -14.665528 6.499007 65.344432 -7.651933 -3.257839 -114.205363 57.587660 -78.513064 2.292966 -0.540701 0.029980 -0.089960 -0.354990 -0.244630 
-0.072710 16.854290 -2.624210 -11.743978 -52.153538 3.602273 -15.513669 14.275496 4.102559 24.051657 4.736902 -33.929301 2.104850 8.367747 26.473027 0.100595 5.445548 2.242735 0.552600 0.220860 0.663680 17.920918 -9.228358 3.064524 1.229698 8.962237 -10.429978 9.421378 -10.056805 42.942750 -1.175641 -6.345582 2.286994 -0.167490 -0.448720 -0.034310 -2.441354 -5.420488 -8.837931 26.176092 5.860637 22.732297 -6.318953 13.277207 -30.247102 5.281256 -8.383174 -15.382191 -30.299556 26.367152 65.815686 5.417750 13.567190 3.637270 -3.323388 31.288646 -0.508385 -53.265279 26.378744 -3.036279 120.802493 -38.685704 -52.828103 -2.778111 2.703883 0.905300 -0.483620 0.452870 0.060250 -4.462988 -14.368191 6.151249 63.012350 -6.264745 -1.737414 -116.797717 56.348584 -79.747003 2.327194 -0.730610 0.020590 -0.093260 -0.370600 -0.287090 
-0.104360 16.828310 -2.650210 -12.707475 -54.135661 2.882560 -15.692265 14.397372 4.187371 25.862188 5.657254 -33.826774 2.911182 9.028434 28.667598 0.126183 5.971905 2.023403 0.588580 0.242570 0.714110 17.824454 -8.935984 2.918796 2.361075 8.379340 -8.816978 8.343546 -9.709921 43.739344 -1.234774 -6.376406 2.265094 -0.150950 -0.499280 -0.036090 -1.955677 -6.157031 -8.971083 24.221519 5.285929 24.825457 -3.345991 14.158673 -30.623036 5.133792 -7.884573 -15.748528 -30.351992 27.756405 67.893890 4.465610 14.737560 1.479340 -2.185275 30.745088 0.296712 -51.083883 25.692363 -2.501243 115.167830 -42.315447 -50.198845 -2.819311 2.496280 0.963420 -0.525730 0.488550 0.043340 -4.539943 -14.067357 6.050526 61.234255 -4.874655 -0.090546 -120.306583 54.831899 -81.785389 2.357592 -0.935823 0.014030 -0.086650 -0.373600 -0.318390 
-0.133650 16.805560 -2.681180 -13.246064 -55.893585 2.086027 -15.865598 14.508873 4.253087 26.967253 6.378289 -34.352396 4.234931 9.375746 30.755062 0.196994 6.335716 1.880902 0.615660 0.287170 0.733890 17.734478 -8.651788 2.754386 2.885753 7.810716 -7.586269 7.739484 -9.619138 44.636928 -1.301738 -6.457035 2.242497 -0.139330 -0.530530 -0.051560 -1.425172 -6.899573 -9.102820 21.337949 5.104274 26.852211 0.212479 15.606526 -30.980148 4.654678 -7.353015 -16.434758 -30.717112 29.397698 68.959184 4.995610 15.321980 0.070530 0.348146 30.150894 2.035252 -50.292428 25.481594 -2.326827 109.586304 -48.045905 -50.844768 -2.826322 2.234707 0.989740 -0.566870 0.528360 0.049300 -5.011860 -14.105342 5.755434 59.768462 -4.535877 0.383688 -123.142873 51.748660 -80.003153 2.376856 -1.118928 0.025270 -0.069260 -0.394540 -0.313870 
-0.161990 16.764780 -2.717610 -13.959326 -58.320544 1.759157 -16.038153 14.445680 4.437111 28.647919 7.330227 -35.119582 4.554863 10.213412 32.941690 0.289897 6.896124 1.687161 0.598960 0.273560 0.702960 17.674594 -8.349138 2.573709 3.245629 7.493261 -6.825172 6.985924 -9.480731 45.723495 -1.331175 -6.591257 2.224809 -0.154700 -0.505620 -0.051720 -1.043621 -7.406838 -9.263865 18.742620 5.068571 28.852299 2.921936 17.133271 -30.751997 4.197505 -7.057277 -16.914311 -29.981613 29.961260 68.163624 5.254260 16.182920 0.717430 2.998694 29.450493 3.904207 -49.854350 25.425094 -2.542177 105.497695 -54.820148 -54.027224 -2.862370 1.923624 0.983230 -0.553270 0.515450 0.060600 -5.938165 -14.043680 5.424124 59.682755 -4.142858 0.293391 -124.832729 48.099227 -75.668436 2.359167 -1.266848 0.024000 -0.067410 -0.385480 -0.304460 
-0.193900 16.737070 -2.754370 -13.643248 -59.941184 1.056348 -16.153744 14.368324 4.630184 29.372239 7.701329 -36.793585 5.274201 10.730649 35.573140 0.374834 7.353213 1.541498 0.534480 0.216010 0.651910 17.644572 -8.151378 2.373105 2.834793 7.101347 -6.736154 6.377454 -9.457465 46.490708 -1.314186 -6.672466 2.222155 -0.191500 -0.468190 -0.075590 -0.703745 -7.807383 -9.393875 15.083517 5.176425 30.125810 5.847793 18.061595 -30.746812 4.076092 -6.623731 -17.462798 -29.075640 30.109526 66.607376 5.603930 17.168930 2.911720 5.674597 28.331701 5.974285 -49.768731 26.154892 -2.943284 104.180915 -59.306455 -57.442376 -2.884752 1.647858 0.961290 -0.528580 0.483120 0.053670 -7.185085 -14.401327 5.184563 59.079416 -5.214905 -0.505111 -126.295264 45.037198 -71.295057 2.357721 -1.367381 0.002770 -0.059990 -0.359140 -0.297670 
-0.210320 16.722540 -2.789410 -12.513283 -60.914892 -0.251752 -16.152895 14.286086 4.773941 29.025073 7.470131 -38.868969 6.423620 10.656995 37.942330 0.413195 7.616404 1.469249 0.466580 0.135710 0.600220 17.678549 -8.159428 2.195183 1.920088 6.632593 -6.810203 5.522664 -9.267680 46.614112 -1.262344 -6.652541 2.246133 -0.236130 -0.425890 -0.081990 -0.571422 -7.887424 -9.409197 11.923724 5.523305 31.225675 7.514303 18.090611 -31.008898 4.189480 -6.267508 -17.582438 -28.195219 29.874533 64.509384 6.084040 17.872050 4.811570 7.006820 27.708714 7.305982 -49.461908 26.503701 -2.158780 107.583625 -59.920811 -63.109716 -2.916027 1.565767 0.952950 -0.497840 0.444920 0.045640 -7.830044 -15.301632 4.908134 58.495783 -6.925046 -1.335658 -128.237586 43.936011 -71.111418 2.348038 -1.436798 -0.025380 -0.065910 -0.325010 -0.300500 
-0.218180 16.715840 -2.816250 -11.768573 -61.635036 -0.960172 -16.112582 14.122795 4.971480 28.723170 6.907885 -41.001486 7.183815 10.440894 39.782417 0.450223 7.781532 1.433840 0.430580 0.101690 0.566210 17.727466 -8.250248 2.073279 1.092769 6.227223 -7.276298 4.718525 -9.092204 46.528438 -1.220048 -6.590755 2.281723 -0.261100 -0.389850 -0.077310 -0.673795 -7.717666 -9.365229 10.385809 5.202157 31.984390 7.668773 17.251993 -31.611813 4.065139 -5.951138 -17.307163 -27.961832 30.178509 62.189114 7.318640 18.289890 6.045690 7.165151 27.706816 8.273746 -48.992047 27.014747 -0.428441 113.783977 -58.161329 -72.231574 -2.970478 1.757982 0.937470 -0.470480 0.426790 0.051190 -7.250557 -16.948609 3.973281 58.117118 -8.999416 -2.084679 -130.418868 42.468743 -70.079841 2.323269 -1.527417 -0.032620 -0.070780 -0.313770 -0.292260 
-0.230710 16.714360 -2.849120 -10.500474 -62.604716 -1.218109 -16.079700 13.872930 5.230195 28.326421 6.090262 -43.457893 7.109743 10.435362 41.241228 0.495763 7.937238 1.422295 0.358060 0.022220 0.505140 17.770447 -8.358645 1.967246 0.266975 5.998295 -8.552328 3.738623 -8.628235 45.914613 -1.118088 -6.389644 2.357216 -0.308720 -0.322270 -0.082030 -0.835206 -7.403308 -9.314672 8.311183 5.707724 32.132633 8.347316 16.276407 -32.567856 3.817511 -5.900583 -16.705986 -28.710618 30.480142 57.077555 10.283210 17.488110 7.816840 7.338359 28.202281 9.285026 -49.636612 27.139964 1.000947 120.529933 -55.137050 -81.425797 -3.031484 2.201870 0.905110 -0.435270 0.377570 0.051770 -5.915552 -19.487194 2.665153 56.295718 -12.839182 -3.240731 -132.067959 40.241687 -65.608254 2.305508 -1.636276 -0.054290 -0.076400 -0.288940 -0.275940 
-0.229670 16.713410 -2.861860 -10.421626 -63.815689 -0.046169 -16.085470 13.620550 5.494851 28.207765 5.202493 -45.660089 6.862240 10.265169 42.022378 0.561842 8.003659 1.450420 0.280140 -0.050740 0.408920 17.772879 -8.406854 1.937359 -0.302988 6.055160 -10.057647 3.406301 -8.509667 45.405433 -1.033308 -6.269948 2.407321 -0.360980 -0.234480 -0.070410 -1.114146 -7.139812 -9.243834 8.036397 5.177500 32.423182 7.484806 14.398177 -33.390032 4.068716 -6.472511 -15.954936 -30.666942 31.133073 49.509558 12.681800 16.969410 9.691860 6.802864 29.363139 9.559615 -50.744918 28.604866 0.829116 127.802610 -51.442254 -90.290433 -3.053576 2.724521 0.844080 -0.389770 0.322600 0.073020 -5.100254 -21.659339 1.412557 55.740993 -15.437735 -4.057837 -129.833556 38.261382 -55.084153 2.300598 -1.679511 -0.056400 -0.093510 -0.263890 -0.229490 
-0.224630 16.712850 -2.876600 -9.752002 -64.849586 0.251865 -16.067068 13.381192 5.694511 27.322596 3.891823 -48.200472 7.469088 9.617504 43.241489 0.623719 8.022604 1.514065 0.174630 -0.140070 0.262280 17.798400 -8.469975 1.902554 -1.248988 6.029512 -11.283088 3.696866 -8.868007 45.300330 -0.951858 -6.315105 2.427044 -0.407100 -0.104200 -0.089910 -1.359643 -6.872298 -9.145154 7.161931 4.921734 33.080575 6.854388 12.571974 -33.694800 4.502116 -7.692015 -14.752077 -33.034329 31.075902 40.048799 14.909490 15.667250 11.365750 5.377493 30.658464 8.914927 -53.393726 28.814084 -0.128555 134.102230 -47.243217 -96.252323 -3.045389 3.078597 0.759240 -0.328340 0.225760 0.102970 -3.972126 -22.964114 0.829398 54.635878 -17.735883 -5.283218 -127.115619 37.648325 -49.164240 2.313376 -1.652988 -0.083050 -0.072490 -0.217710 -0.167130 
-0.224940 16.719060 -2.872590 -8.376243 -66.189291 1.042147 -16.043368 13.041527 5.921487 26.052943 2.374543 -50.932398 7.218475 9.216687 43.508998 0.663607 7.946656 1.613833 0.072150 -0.213240 0.089750 17.817072 -8.568603 1.940672 -2.549842 6.293920 -13.585927 4.397392 -9.578346 45.925778 -0.879641 -6.529052 2.382449 -0.429900 0.065270 -0.104710 -1.756126 -6.356101 -9.041399 7.021597 4.052071 32.164445 5.225685 10.032368 -34.322249 4.631809 -9.158849 -13.421177 -34.476012 31.094298 30.176305 17.314610 14.647480 14.104760 4.179003 33.516175 7.346511 -54.884858 28.933291 -0.491535 138.690471 -43.864597 -99.768748 -3.069487 3.299306 0.638650 -0.238790 0.101670 0.145830 -3.009237 -25.686065 0.065475 53.225734 -19.849935 -4.917070 -126.017106 40.330095 -52.623556 2.267555 -1.566819 -0.110780 -0.045960 -0.164730 -0.085710 
